<?xml version="1.0" encoding="UTF-8" standalone="no"?>
<!-- Created with Inkscape (http://www.inkscape.org/) -->

<svg
   width="210mm"
   height="297mm"
   viewBox="0 0 210 297"
   version="1.1"
   id="svg1"
   inkscape:version="1.3.2 (091e20e, 2023-11-25, custom)"
   sodipodi:docname="lantern.svg"
   xmlns:inkscape="http://www.inkscape.org/namespaces/inkscape"
   xmlns:sodipodi="http://sodipodi.sourceforge.net/DTD/sodipodi-0.dtd"
   xmlns="http://www.w3.org/2000/svg"
   xmlns:svg="http://www.w3.org/2000/svg">
  <sodipodi:namedview
     id="namedview1"
     pagecolor="#ffffff"
     bordercolor="#000000"
     borderopacity="0.25"
     inkscape:showpageshadow="2"
     inkscape:pageopacity="0.0"
     inkscape:pagecheckerboard="0"
     inkscape:deskcolor="#d1d1d1"
     inkscape:document-units="mm"
     inkscape:zoom="0.74564394"
     inkscape:cx="396.97231"
     inkscape:cy="561.25984"
     inkscape:window-width="1920"
     inkscape:window-height="1051"
     inkscape:window-x="-9"
     inkscape:window-y="-9"
     inkscape:window-maximized="1"
     inkscape:current-layer="layer1" />
  <defs
     id="defs1" />
  <g
     inkscape:label="Calque 1"
     inkscape:groupmode="layer"
     id="layer1">
    <path
       class="cls-1"
       d="m 107.02396,142.88672 v -0.60703 c 0,-0.40127 -0.32634,-0.72761 -0.72761,-0.72761 h -2.64583 c -0.40127,0 -0.7276,0.32634 -0.7276,0.72761 v 0.60703 c -0.89157,0.0991 -1.5875,0.85656 -1.5875,1.77422 v 4.7625 c 0,0.91768 0.69593,1.67513 1.5875,1.77421 v 0.60704 c 0,0.40126 0.32633,0.7276 0.7276,0.7276 h 1.12448 v 0.68972 c -0.30991,0.0803 -0.55189,0.34041 -0.59325,0.67056 l -0.19897,1.59162 c -0.007,0.0566 0.0103,0.1133 0.048,0.15606 0.0377,0.0426 0.092,0.067 0.14883,0.067 h 1.5875 c 0.0568,0 0.1111,-0.0244 0.14883,-0.067 0.0377,-0.0428 0.055,-0.0995 0.0481,-0.15606 l -0.19897,-1.59149 c -0.0413,-0.33025 -0.28334,-0.59037 -0.59325,-0.67069 v -0.68972 h 1.12448 c 0.40127,0 0.72761,-0.32634 0.72761,-0.7276 v -0.60704 c 0.89156,-0.0991 1.5875,-0.85656 1.5875,-1.77421 v -4.7625 c 0,-0.91768 -0.69594,-1.67513 -1.5875,-1.77422 z m -1.65262,11.05519 0.17106,1.36853 h -1.13792 l 0.17105,-1.36866 c 0.0251,-0.20011 0.19611,-0.35113 0.39791,-0.35113 0.2018,0 0.37285,0.15102 0.3979,0.35126 z m -2.05155,-11.6622 c 0,-0.18243 0.1483,-0.33073 0.33073,-0.33073 h 2.64583 c 0.18243,0 0.33073,0.1483 0.33073,0.33073 v 0.59532 h -3.30729 z m 3.30729,2.38125 v 4.7625 c 0,0.81857 -0.34597,1.38907 -0.6563,1.38907 h -0.7989 v -7.54066 h 0.7989 c 0.31033,0 0.6563,0.5705 0.6563,1.38907 z m -2.65099,6.15157 c -0.31033,0 -0.6563,-0.5705 -0.6563,-1.38907 v -4.7625 c 0,-0.81856 0.34597,-1.38906 0.6563,-1.38906 h 0.79891 v 7.54063 z m -2.2438,-1.38907 v -4.7625 c 0,-0.76597 0.62323,-1.38906 1.38906,-1.38906 h 0.1859 c -0.23585,0.32491 -0.38433,0.82201 -0.38433,1.38906 v 4.7625 c 0,0.56706 0.14848,1.06416 0.38433,1.38907 h -0.1859 c -0.76583,0 -1.38906,-0.6231 -1.38906,-1.38907 z m 4.89479,2.38125 c 0,0.18243 -0.1483,0.33073 -0.33073,0.33073 h -2.64583 c -0.18243,0 -0.33073,-0.1483 -0.33073,-0.33073 v -0.59531 h 3.30729 z m 1.5875,-2.38125 c 0,0.76597 -0.62322,1.38907 -1.38906,1.38907 h -0.1859 c 0.23585,-0.32491 0.38434,-0.82201 0.38434,-1.38907 v -4.7625 c 0,-0.56705 -0.14849,-1.06415 -0.38434,-1.38906 h 0.1859 c 0.76584,0 1.38906,0.62309 1.38906,1.38906 z"
       id="path1"
       style="stroke-width:0px" />
  </g>
</svg>
